<svg xmlns="http://www.w3.org/2000/svg" viewBox="0 0 1500 500" width="1500" height="500">
  <rect width="1500" height="500" fill="#FFFFFF"/>
  
  <path d="M349.28 217.98000000000002Q362.40999999999997 217.98000000000002 370.92499999999995 224.48000000000002Q379.44 230.98 381.90999999999997 242.16H372.15999999999997Q370.34 234.49 364.29499999999996 230.135Q358.25 225.78 349.28 225.78Q342.13 225.78 336.40999999999997 229.03Q330.69 232.28 327.375 238.715Q324.06 245.15 324.06 254.51Q324.06 263.87 327.375 270.37Q330.69 276.87 336.40999999999997 280.12Q342.13 283.37 349.28 283.37Q358.25 283.37 364.29499999999996 279.015Q370.34 274.66 372.15999999999997 266.86H381.90999999999997Q379.44 277.78 370.86 284.40999999999997Q362.28 291.04 349.28 291.04Q339.27 291.04 331.46999999999997 286.555Q323.66999999999996 282.07 319.25 273.815Q314.83 265.56 314.83 254.51Q314.83 243.46 319.25 235.20499999999998Q323.66999999999996 226.95 331.46999999999997 222.465Q339.27 217.98000000000002 349.28 217.98000000000002ZM432.09 217.72V227.21H429.62Q419.73999999999995 227.21 413.76 232.54000000000002Q407.78 237.87 407.78 250.35V290.0H398.67999999999995V219.01999999999998H407.78V231.63Q410.77 225.0 416.945 221.36Q423.12 217.72 432.09 217.72ZM504.24 219.01999999999998 462.12 323.41H452.63L466.40999999999997 289.61L437.28999999999996 219.01999999999998H447.29999999999995L471.47999999999996 279.6L494.88 219.01999999999998ZM553.77 217.98000000000002Q563.39 217.98000000000002 571.125 222.465Q578.86 226.95 583.215 235.20499999999998Q587.57 243.46 587.57 254.38Q587.57 265.3 583.215 273.62Q578.86 281.94 571.125 286.49Q563.39 291.04 553.77 291.04Q543.76 291.04 536.35 286.295Q528.94 281.55 525.56 274.4V323.54H516.59V219.01999999999998H525.56V234.62Q528.94 227.47 536.2850000000001 222.72500000000002Q543.63 217.98000000000002 553.77 217.98000000000002ZM551.95 225.91Q544.67 225.91 538.625 229.42000000000002Q532.58 232.93 529.0699999999999 239.43Q525.56 245.93 525.56 254.51Q525.56 263.09 529.0699999999999 269.59Q532.58 276.09 538.625 279.6Q544.67 283.11 551.95 283.11Q559.49 283.11 565.47 279.665Q571.45 276.22 574.895 269.655Q578.34 263.09 578.34 254.38Q578.34 245.54 574.895 239.105Q571.45 232.67 565.47 229.29Q559.49 225.91 551.95 225.91ZM616.1700000000001 226.69V270.76Q616.1700000000001 277.26 618.6400000000001 279.73Q621.11 282.2 627.35 282.2H635.6700000000001V290.0H625.9200000000001Q616.3000000000001 290.0 611.6200000000001 285.515Q606.94 281.03 606.94 270.76V226.69H597.0600000000001V219.01999999999998H606.94V201.20999999999998H616.1700000000001V219.01999999999998H635.6700000000001V226.69ZM646.46 254.51Q646.46 243.46 651.1400000000001 235.20499999999998Q655.82 226.95 663.8800000000001 222.465Q671.94 217.98000000000002 681.95 217.98000000000002Q691.96 217.98000000000002 700.085 222.465Q708.21 226.95 712.825 235.20499999999998Q717.44 243.46 717.44 254.51Q717.44 265.43 712.76 273.75Q708.08 282.07 699.8900000000001 286.555Q691.7 291.04 681.69 291.04Q671.6800000000001 291.04 663.6850000000001 286.555Q655.69 282.07 651.075 273.815Q646.46 265.56 646.46 254.51ZM708.08 254.51Q708.08 245.15 704.44 238.715Q700.8000000000001 232.28 694.82 229.095Q688.84 225.91 681.82 225.91Q674.8000000000001 225.91 668.82 229.095Q662.84 232.28 659.2650000000001 238.715Q655.69 245.15 655.69 254.51Q655.69 263.87 659.2650000000001 270.305Q662.84 276.74 668.7550000000001 279.925Q674.6700000000001 283.11 681.69 283.11Q688.71 283.11 694.69 279.925Q700.6700000000001 276.74 704.375 270.305Q708.08 263.87 708.08 254.51Z" fill="#1a2332"/>
  <path d="M804.5400000000001 265.17Q804.5400000000001 276.61 796.5450000000001 283.305Q788.5500000000001 290.0 774.2500000000001 290.0H731.74V198.74H772.82Q786.73 198.74 794.595 205.11Q802.46 211.48000000000002 802.46 222.39999999999998Q802.46 230.46 798.2350000000001 235.79000000000002Q794.0100000000001 241.12 786.99 243.2Q794.9200000000001 244.89 799.73 251.065Q804.5400000000001 257.24 804.5400000000001 265.17ZM753.97 235.66H768.5300000000001Q773.99 235.66 776.915 233.255Q779.84 230.85 779.84 226.17Q779.84 221.49 776.915 219.02Q773.99 216.55 768.5300000000001 216.55H753.97ZM782.0500000000001 262.18Q782.0500000000001 257.37 778.865 254.64Q775.6800000000001 251.91 770.09 251.91H753.97V272.06H770.35Q775.94 272.06 778.9950000000001 269.525Q782.0500000000001 266.99 782.0500000000001 262.18ZM874.22 273.88H840.1600000000001L834.7 290.0H811.4300000000001L844.45 198.74H870.19L903.21 290.0H879.6800000000001ZM868.5 256.72 857.19 223.31 846.01 256.72ZM910.6200000000001 262.7H934.2800000000001Q934.8000000000001 267.77 937.7900000000001 270.435Q940.7800000000001 273.1 945.59 273.1Q950.5300000000001 273.1 953.3900000000001 270.82500000000005Q956.2500000000001 268.55 956.2500000000001 264.52Q956.2500000000001 261.14 953.9750000000001 258.93Q951.7 256.72 948.385 255.29000000000002Q945.07 253.86 938.96 252.04Q930.1200000000001 249.31 924.5300000000001 246.57999999999998Q918.94 243.85 914.9100000000001 238.51999999999998Q910.8800000000001 233.19 910.8800000000001 224.61Q910.8800000000001 211.87 920.1100000000001 204.655Q929.34 197.44 944.1600000000001 197.44Q959.2400000000001 197.44 968.47 204.655Q977.7 211.87 978.3500000000001 224.74H954.3000000000001Q954.0400000000001 220.32 951.0500000000001 217.785Q948.0600000000001 215.25 943.3800000000001 215.25Q939.3500000000001 215.25 936.8800000000001 217.39499999999998Q934.4100000000001 219.54 934.4100000000001 223.57Q934.4100000000001 227.99 938.5700000000002 230.46Q942.7300000000001 232.93 951.57 235.79Q960.4100000000001 238.78 965.9350000000001 241.51Q971.46 244.24 975.49 249.44Q979.5200000000001 254.64 979.5200000000001 262.83Q979.5200000000001 270.63 975.5550000000001 277.0Q971.5900000000001 283.37 964.0500000000002 287.14Q956.5100000000001 290.91 946.2400000000001 290.91Q936.2300000000001 290.91 928.3000000000002 287.66Q920.3700000000001 284.41 915.6250000000001 278.04Q910.8800000000001 271.67 910.6200000000001 262.7ZM1015.4000000000001 198.74V290.0H993.1700000000001V198.74ZM1028.92 262.7H1052.5800000000002Q1053.1000000000001 267.77 1056.0900000000001 270.435Q1059.0800000000002 273.1 1063.89 273.1Q1068.8300000000002 273.1 1071.69 270.82500000000005Q1074.5500000000002 268.55 1074.5500000000002 264.52Q1074.5500000000002 261.14 1072.275 258.93Q1070.0000000000002 256.72 1066.6850000000002 255.29000000000002Q1063.3700000000001 253.86 1057.2600000000002 252.04Q1048.42 249.31 1042.8300000000002 246.57999999999998Q1037.2400000000002 243.85 1033.21 238.51999999999998Q1029.18 233.19 1029.18 224.61Q1029.18 211.87 1038.41 204.655Q1047.64 197.44 1062.46 197.44Q1077.5400000000002 197.44 1086.7700000000002 204.655Q1096.0000000000002 211.87 1096.65 224.74H1072.6000000000001Q1072.3400000000001 220.32 1069.3500000000001 217.785Q1066.3600000000001 215.25 1061.68 215.25Q1057.65 215.25 1055.18 217.39499999999998Q1052.71 219.54 1052.71 223.57Q1052.71 227.99 1056.8700000000001 230.46Q1061.0300000000002 232.93 1069.8700000000001 235.79Q1078.71 238.78 1084.2350000000001 241.51Q1089.7600000000002 244.24 1093.7900000000002 249.44Q1097.8200000000002 254.64 1097.8200000000002 262.83Q1097.8200000000002 270.63 1093.855 277.0Q1089.89 283.37 1082.3500000000001 287.14Q1074.8100000000002 290.91 1064.5400000000002 290.91Q1054.5300000000002 290.91 1046.6000000000001 287.66Q1038.67 284.41 1033.9250000000002 278.04Q1029.18 271.67 1028.92 262.7Z" fill="#0F766E"/>
  <line x1="604.34" y1="329.00" x2="1103.41" y2="329.00" stroke="#0F766E" stroke-width="4.55" stroke-linecap="round"/>
  <path d="M1120.1959662039621 204.48689320591518Q1120.1959662039621 204.1880206124442 1120.4051770193919 203.9706587262835Q1120.6143878348216 203.75329684012277 1120.9078263811384 203.75329684012277Q1121.2121330217635 203.75329684012277 1121.4294949079242 203.9706587262835Q1121.646856794085 204.1880206124442 1121.646856794085 204.48689320591518Q1121.646856794085 204.79119984654017 1121.4322119315011 205.00312768554687Q1121.2175670689176 205.21505552455358 1120.9078263811384 205.21505552455358Q1120.6035197405135 205.21505552455358 1120.3997429722378 205.0085617327009Q1120.1959662039621 204.80206794084822 1120.1959662039621 204.48689320591518ZM1120.9186944754465 201.17212444196429Q1120.15249382673 201.17212444196429 1119.7748275495258 201.998099609375Q1119.3971612723215 202.82407477678572 1119.3971612723215 204.51406344168527Q1119.3971612723215 206.1986180594308 1119.7748275495258 207.02459322684152Q1120.15249382673 207.85056839425224 1120.9186944754465 207.85056839425224Q1121.690329171317 207.85056839425224 1122.0679954485213 207.02459322684152Q1122.4456617257256 206.1986180594308 1122.4456617257256 204.51406344168527Q1122.4456617257256 202.82407477678572 1122.0679954485213 201.998099609375Q1121.690329171317 201.17212444196429 1120.9186944754465 201.17212444196429ZM1120.9186944754465 200.30267689732142Q1122.2174317452568 200.30267689732142 1122.883102521624 201.36775013950893Q1123.5487732979911 202.43282338169644 1123.5487732979911 204.51406344168527Q1123.5487732979911 206.58986945452008 1122.883102521624 207.65494269670756Q1122.2174317452568 208.72001593889507 1120.9186944754465 208.72001593889507Q1119.6199572056362 208.72001593889507 1118.957003452846 207.65494269670756Q1118.294049700056 206.58986945452008 1118.294049700056 204.51406344168527Q1118.294049700056 202.43282338169644 1118.957003452846 201.36775013950893Q1119.6199572056362 200.30267689732142 1120.9186944754465 200.30267689732142Z" fill="#0f766e"/>
<path d="M1131.1959662039621 204.48689320591518Q1131.1959662039621 204.1880206124442 1131.4051770193919 203.9706587262835Q1131.6143878348216 203.75329684012277 1131.9078263811384 203.75329684012277Q1132.2121330217635 203.75329684012277 1132.4294949079242 203.9706587262835Q1132.646856794085 204.1880206124442 1132.646856794085 204.48689320591518Q1132.646856794085 204.79119984654017 1132.4322119315011 205.00312768554687Q1132.2175670689176 205.21505552455358 1131.9078263811384 205.21505552455358Q1131.6035197405135 205.21505552455358 1131.3997429722378 205.0085617327009Q1131.1959662039621 204.80206794084822 1131.1959662039621 204.48689320591518ZM1131.9186944754465 201.17212444196429Q1131.15249382673 201.17212444196429 1130.7748275495258 201.998099609375Q1130.3971612723215 202.82407477678572 1130.3971612723215 204.51406344168527Q1130.3971612723215 206.1986180594308 1130.7748275495258 207.02459322684152Q1131.15249382673 207.85056839425224 1131.9186944754465 207.85056839425224Q1132.690329171317 207.85056839425224 1133.0679954485213 207.02459322684152Q1133.4456617257256 206.1986180594308 1133.4456617257256 204.51406344168527Q1133.4456617257256 202.82407477678572 1133.0679954485213 201.998099609375Q1132.690329171317 201.17212444196429 1131.9186944754465 201.17212444196429ZM1131.9186944754465 200.30267689732142Q1133.2174317452568 200.30267689732142 1133.883102521624 201.36775013950893Q1134.5487732979911 202.43282338169644 1134.5487732979911 204.51406344168527Q1134.5487732979911 206.58986945452008 1133.883102521624 207.65494269670756Q1133.2174317452568 208.72001593889507 1131.9186944754465 208.72001593889507Q1130.6199572056362 208.72001593889507 1129.957003452846 207.65494269670756Q1129.294049700056 206.58986945452008 1129.294049700056 204.51406344168527Q1129.294049700056 202.43282338169644 1129.957003452846 201.36775013950893Q1130.6199572056362 200.30267689732142 1131.9186944754465 200.30267689732142Z" fill="#3f918b"/>
<path d="M1141.0385141601564 207.63864055524553H1142.744804966518V201.43839275251116L1140.90809702846 201.85138033621652V200.85151565987724L1142.7339368722098 200.4493961704799H1143.8316143973216V207.63864055524553H1145.5161690150671V208.56242857142857H1141.0385141601564Z" fill="#6faca8"/>
<path d="M1153.1959662039621 204.48689320591518Q1153.1959662039621 204.1880206124442 1153.4051770193919 203.9706587262835Q1153.6143878348216 203.75329684012277 1153.9078263811384 203.75329684012277Q1154.2121330217635 203.75329684012277 1154.4294949079242 203.9706587262835Q1154.646856794085 204.1880206124442 1154.646856794085 204.48689320591518Q1154.646856794085 204.79119984654017 1154.4322119315011 205.00312768554687Q1154.2175670689176 205.21505552455358 1153.9078263811384 205.21505552455358Q1153.6035197405135 205.21505552455358 1153.3997429722378 205.0085617327009Q1153.1959662039621 204.80206794084822 1153.1959662039621 204.48689320591518ZM1153.9186944754465 201.17212444196429Q1153.15249382673 201.17212444196429 1152.7748275495258 201.998099609375Q1152.3971612723215 202.82407477678572 1152.3971612723215 204.51406344168527Q1152.3971612723215 206.1986180594308 1152.7748275495258 207.02459322684152Q1153.15249382673 207.85056839425224 1153.9186944754465 207.85056839425224Q1154.690329171317 207.85056839425224 1155.0679954485213 207.02459322684152Q1155.4456617257256 206.1986180594308 1155.4456617257256 204.51406344168527Q1155.4456617257256 202.82407477678572 1155.0679954485213 201.998099609375Q1154.690329171317 201.17212444196429 1153.9186944754465 201.17212444196429ZM1153.9186944754465 200.30267689732142Q1155.2174317452568 200.30267689732142 1155.883102521624 201.36775013950893Q1156.5487732979911 202.43282338169644 1156.5487732979911 204.51406344168527Q1156.5487732979911 206.58986945452008 1155.883102521624 207.65494269670756Q1155.2174317452568 208.72001593889507 1153.9186944754465 208.72001593889507Q1152.6199572056362 208.72001593889507 1151.957003452846 207.65494269670756Q1151.294049700056 206.58986945452008 1151.294049700056 204.51406344168527Q1151.294049700056 202.43282338169644 1151.957003452846 201.36775013950893Q1152.6199572056362 200.30267689732142 1153.9186944754465 200.30267689732142Z" fill="#9fc8c5"/>
<path d="M1164.1959662039621 204.48689320591518Q1164.1959662039621 204.1880206124442 1164.4051770193919 203.9706587262835Q1164.6143878348216 203.75329684012277 1164.9078263811384 203.75329684012277Q1165.2121330217635 203.75329684012277 1165.4294949079242 203.9706587262835Q1165.646856794085 204.1880206124442 1165.646856794085 204.48689320591518Q1165.646856794085 204.79119984654017 1165.4322119315011 205.00312768554687Q1165.2175670689176 205.21505552455358 1164.9078263811384 205.21505552455358Q1164.6035197405135 205.21505552455358 1164.3997429722378 205.0085617327009Q1164.1959662039621 204.80206794084822 1164.1959662039621 204.48689320591518ZM1164.9186944754465 201.17212444196429Q1164.15249382673 201.17212444196429 1163.7748275495258 201.998099609375Q1163.3971612723215 202.82407477678572 1163.3971612723215 204.51406344168527Q1163.3971612723215 206.1986180594308 1163.7748275495258 207.02459322684152Q1164.15249382673 207.85056839425224 1164.9186944754465 207.85056839425224Q1165.690329171317 207.85056839425224 1166.0679954485213 207.02459322684152Q1166.4456617257256 206.1986180594308 1166.4456617257256 204.51406344168527Q1166.4456617257256 202.82407477678572 1166.0679954485213 201.998099609375Q1165.690329171317 201.17212444196429 1164.9186944754465 201.17212444196429ZM1164.9186944754465 200.30267689732142Q1166.2174317452568 200.30267689732142 1166.883102521624 201.36775013950893Q1167.5487732979911 202.43282338169644 1167.5487732979911 204.51406344168527Q1167.5487732979911 206.58986945452008 1166.883102521624 207.65494269670756Q1166.2174317452568 208.72001593889507 1164.9186944754465 208.72001593889507Q1163.6199572056362 208.72001593889507 1162.957003452846 207.65494269670756Q1162.294049700056 206.58986945452008 1162.294049700056 204.51406344168527Q1162.294049700056 202.43282338169644 1162.957003452846 201.36775013950893Q1163.6199572056362 200.30267689732142 1164.9186944754465 200.30267689732142Z" fill="#cfe3e2"/>
<path d="M1175.1959662039621 204.48689320591518Q1175.1959662039621 204.1880206124442 1175.4051770193919 203.9706587262835Q1175.6143878348216 203.75329684012277 1175.9078263811384 203.75329684012277Q1176.2121330217635 203.75329684012277 1176.4294949079242 203.9706587262835Q1176.646856794085 204.1880206124442 1176.646856794085 204.48689320591518Q1176.646856794085 204.79119984654017 1176.4322119315011 205.00312768554687Q1176.2175670689176 205.21505552455358 1175.9078263811384 205.21505552455358Q1175.6035197405135 205.21505552455358 1175.3997429722378 205.0085617327009Q1175.1959662039621 204.80206794084822 1175.1959662039621 204.48689320591518ZM1175.9186944754465 201.17212444196429Q1175.15249382673 201.17212444196429 1174.7748275495258 201.998099609375Q1174.3971612723215 202.82407477678572 1174.3971612723215 204.51406344168527Q1174.3971612723215 206.1986180594308 1174.7748275495258 207.02459322684152Q1175.15249382673 207.85056839425224 1175.9186944754465 207.85056839425224Q1176.690329171317 207.85056839425224 1177.0679954485213 207.02459322684152Q1177.4456617257256 206.1986180594308 1177.4456617257256 204.51406344168527Q1177.4456617257256 202.82407477678572 1177.0679954485213 201.998099609375Q1176.690329171317 201.17212444196429 1175.9186944754465 201.17212444196429ZM1175.9186944754465 200.30267689732142Q1177.2174317452568 200.30267689732142 1177.883102521624 201.36775013950893Q1178.5487732979911 202.43282338169644 1178.5487732979911 204.51406344168527Q1178.5487732979911 206.58986945452008 1177.883102521624 207.65494269670756Q1177.2174317452568 208.72001593889507 1175.9186944754465 208.72001593889507Q1174.6199572056362 208.72001593889507 1173.957003452846 207.65494269670756Q1173.294049700056 206.58986945452008 1173.294049700056 204.51406344168527Q1173.294049700056 202.43282338169644 1173.957003452846 201.36775013950893Q1174.6199572056362 200.30267689732142 1175.9186944754465 200.30267689732142Z" fill="#ffffff"/>
<path d="M1120.1959662039621 217.57975034877234Q1120.1959662039621 217.28087775530136 1120.4051770193919 217.06351586914064Q1120.6143878348216 216.84615398297993 1120.9078263811384 216.84615398297993Q1121.2121330217635 216.84615398297993 1121.4294949079242 217.06351586914064Q1121.646856794085 217.28087775530136 1121.646856794085 217.57975034877234Q1121.646856794085 217.88405698939732 1121.4322119315011 218.09598482840403Q1121.2175670689176 218.30791266741073 1120.9078263811384 218.30791266741073Q1120.6035197405135 218.30791266741073 1120.3997429722378 218.10141887555807Q1120.1959662039621 217.89492508370537 1120.1959662039621 217.57975034877234ZM1120.9186944754465 214.26498158482144Q1120.15249382673 214.26498158482144 1119.7748275495258 215.09095675223216Q1119.3971612723215 215.91693191964288 1119.3971612723215 217.60692058454242Q1119.3971612723215 219.29147520228796 1119.7748275495258 220.11745036969867Q1120.15249382673 220.9434255371094 1120.9186944754465 220.9434255371094Q1121.690329171317 220.9434255371094 1122.0679954485213 220.11745036969867Q1122.4456617257256 219.29147520228796 1122.4456617257256 217.60692058454242Q1122.4456617257256 215.91693191964288 1122.0679954485213 215.09095675223216Q1121.690329171317 214.26498158482144 1120.9186944754465 214.26498158482144ZM1120.9186944754465 213.39553404017857Q1122.2174317452568 213.39553404017857 1122.883102521624 214.46060728236608Q1123.5487732979911 215.5256805245536 1123.5487732979911 217.60692058454242Q1123.5487732979911 219.68272659737724 1122.883102521624 220.74779983956472Q1122.2174317452568 221.81287308175223 1120.9186944754465 221.81287308175223Q1119.6199572056362 221.81287308175223 1118.957003452846 220.74779983956472Q1118.294049700056 219.68272659737724 1118.294049700056 217.60692058454242Q1118.294049700056 215.5256805245536 1118.957003452846 214.46060728236608Q1119.6199572056362 213.39553404017857 1120.9186944754465 213.39553404017857Z" fill="#0f766e"/>
<path d="M1131.1959662039621 217.57975034877234Q1131.1959662039621 217.28087775530136 1131.4051770193919 217.06351586914064Q1131.6143878348216 216.84615398297993 1131.9078263811384 216.84615398297993Q1132.2121330217635 216.84615398297993 1132.4294949079242 217.06351586914064Q1132.646856794085 217.28087775530136 1132.646856794085 217.57975034877234Q1132.646856794085 217.88405698939732 1132.4322119315011 218.09598482840403Q1132.2175670689176 218.30791266741073 1131.9078263811384 218.30791266741073Q1131.6035197405135 218.30791266741073 1131.3997429722378 218.10141887555807Q1131.1959662039621 217.89492508370537 1131.1959662039621 217.57975034877234ZM1131.9186944754465 214.26498158482144Q1131.15249382673 214.26498158482144 1130.7748275495258 215.09095675223216Q1130.3971612723215 215.91693191964288 1130.3971612723215 217.60692058454242Q1130.3971612723215 219.29147520228796 1130.7748275495258 220.11745036969867Q1131.15249382673 220.9434255371094 1131.9186944754465 220.9434255371094Q1132.690329171317 220.9434255371094 1133.0679954485213 220.11745036969867Q1133.4456617257256 219.29147520228796 1133.4456617257256 217.60692058454242Q1133.4456617257256 215.91693191964288 1133.0679954485213 215.09095675223216Q1132.690329171317 214.26498158482144 1131.9186944754465 214.26498158482144ZM1131.9186944754465 213.39553404017857Q1133.2174317452568 213.39553404017857 1133.883102521624 214.46060728236608Q1134.5487732979911 215.5256805245536 1134.5487732979911 217.60692058454242Q1134.5487732979911 219.68272659737724 1133.883102521624 220.74779983956472Q1133.2174317452568 221.81287308175223 1131.9186944754465 221.81287308175223Q1130.6199572056362 221.81287308175223 1129.957003452846 220.74779983956472Q1129.294049700056 219.68272659737724 1129.294049700056 217.60692058454242Q1129.294049700056 215.5256805245536 1129.957003452846 214.46060728236608Q1130.6199572056362 213.39553404017857 1131.9186944754465 213.39553404017857Z" fill="#3f918b"/>
<path d="M1141.0385141601564 220.7314976981027H1142.744804966518V214.53124989536832L1140.90809702846 214.94423747907368V213.9443728027344L1142.7339368722098 213.54225331333706H1143.8316143973216V220.7314976981027H1145.5161690150671V221.65528571428572H1141.0385141601564Z" fill="#6faca8"/>
<path d="M1153.1959662039621 217.57975034877234Q1153.1959662039621 217.28087775530136 1153.4051770193919 217.06351586914064Q1153.6143878348216 216.84615398297993 1153.9078263811384 216.84615398297993Q1154.2121330217635 216.84615398297993 1154.4294949079242 217.06351586914064Q1154.646856794085 217.28087775530136 1154.646856794085 217.57975034877234Q1154.646856794085 217.88405698939732 1154.4322119315011 218.09598482840403Q1154.2175670689176 218.30791266741073 1153.9078263811384 218.30791266741073Q1153.6035197405135 218.30791266741073 1153.3997429722378 218.10141887555807Q1153.1959662039621 217.89492508370537 1153.1959662039621 217.57975034877234ZM1153.9186944754465 214.26498158482144Q1153.15249382673 214.26498158482144 1152.7748275495258 215.09095675223216Q1152.3971612723215 215.91693191964288 1152.3971612723215 217.60692058454242Q1152.3971612723215 219.29147520228796 1152.7748275495258 220.11745036969867Q1153.15249382673 220.9434255371094 1153.9186944754465 220.9434255371094Q1154.690329171317 220.9434255371094 1155.0679954485213 220.11745036969867Q1155.4456617257256 219.29147520228796 1155.4456617257256 217.60692058454242Q1155.4456617257256 215.91693191964288 1155.0679954485213 215.09095675223216Q1154.690329171317 214.26498158482144 1153.9186944754465 214.26498158482144ZM1153.9186944754465 213.39553404017857Q1155.2174317452568 213.39553404017857 1155.883102521624 214.46060728236608Q1156.5487732979911 215.5256805245536 1156.5487732979911 217.60692058454242Q1156.5487732979911 219.68272659737724 1155.883102521624 220.74779983956472Q1155.2174317452568 221.81287308175223 1153.9186944754465 221.81287308175223Q1152.6199572056362 221.81287308175223 1151.957003452846 220.74779983956472Q1151.294049700056 219.68272659737724 1151.294049700056 217.60692058454242Q1151.294049700056 215.5256805245536 1151.957003452846 214.46060728236608Q1152.6199572056362 213.39553404017857 1153.9186944754465 213.39553404017857Z" fill="#9fc8c5"/>
<path d="M1164.1959662039621 217.57975034877234Q1164.1959662039621 217.28087775530136 1164.4051770193919 217.06351586914064Q1164.6143878348216 216.84615398297993 1164.9078263811384 216.84615398297993Q1165.2121330217635 216.84615398297993 1165.4294949079242 217.06351586914064Q1165.646856794085 217.28087775530136 1165.646856794085 217.57975034877234Q1165.646856794085 217.88405698939732 1165.4322119315011 218.09598482840403Q1165.2175670689176 218.30791266741073 1164.9078263811384 218.30791266741073Q1164.6035197405135 218.30791266741073 1164.3997429722378 218.10141887555807Q1164.1959662039621 217.89492508370537 1164.1959662039621 217.57975034877234ZM1164.9186944754465 214.26498158482144Q1164.15249382673 214.26498158482144 1163.7748275495258 215.09095675223216Q1163.3971612723215 215.91693191964288 1163.3971612723215 217.60692058454242Q1163.3971612723215 219.29147520228796 1163.7748275495258 220.11745036969867Q1164.15249382673 220.9434255371094 1164.9186944754465 220.9434255371094Q1165.690329171317 220.9434255371094 1166.0679954485213 220.11745036969867Q1166.4456617257256 219.29147520228796 1166.4456617257256 217.60692058454242Q1166.4456617257256 215.91693191964288 1166.0679954485213 215.09095675223216Q1165.690329171317 214.26498158482144 1164.9186944754465 214.26498158482144ZM1164.9186944754465 213.39553404017857Q1166.2174317452568 213.39553404017857 1166.883102521624 214.46060728236608Q1167.5487732979911 215.5256805245536 1167.5487732979911 217.60692058454242Q1167.5487732979911 219.68272659737724 1166.883102521624 220.74779983956472Q1166.2174317452568 221.81287308175223 1164.9186944754465 221.81287308175223Q1163.6199572056362 221.81287308175223 1162.957003452846 220.74779983956472Q1162.294049700056 219.68272659737724 1162.294049700056 217.60692058454242Q1162.294049700056 215.5256805245536 1162.957003452846 214.46060728236608Q1163.6199572056362 213.39553404017857 1164.9186944754465 213.39553404017857Z" fill="#cfe3e2"/>
<path d="M1175.1959662039621 217.57975034877234Q1175.1959662039621 217.28087775530136 1175.4051770193919 217.06351586914064Q1175.6143878348216 216.84615398297993 1175.9078263811384 216.84615398297993Q1176.2121330217635 216.84615398297993 1176.4294949079242 217.06351586914064Q1176.646856794085 217.28087775530136 1176.646856794085 217.57975034877234Q1176.646856794085 217.88405698939732 1176.4322119315011 218.09598482840403Q1176.2175670689176 218.30791266741073 1175.9078263811384 218.30791266741073Q1175.6035197405135 218.30791266741073 1175.3997429722378 218.10141887555807Q1175.1959662039621 217.89492508370537 1175.1959662039621 217.57975034877234ZM1175.9186944754465 214.26498158482144Q1175.15249382673 214.26498158482144 1174.7748275495258 215.09095675223216Q1174.3971612723215 215.91693191964288 1174.3971612723215 217.60692058454242Q1174.3971612723215 219.29147520228796 1174.7748275495258 220.11745036969867Q1175.15249382673 220.9434255371094 1175.9186944754465 220.9434255371094Q1176.690329171317 220.9434255371094 1177.0679954485213 220.11745036969867Q1177.4456617257256 219.29147520228796 1177.4456617257256 217.60692058454242Q1177.4456617257256 215.91693191964288 1177.0679954485213 215.09095675223216Q1176.690329171317 214.26498158482144 1175.9186944754465 214.26498158482144ZM1175.9186944754465 213.39553404017857Q1177.2174317452568 213.39553404017857 1177.883102521624 214.46060728236608Q1178.5487732979911 215.5256805245536 1178.5487732979911 217.60692058454242Q1178.5487732979911 219.68272659737724 1177.883102521624 220.74779983956472Q1177.2174317452568 221.81287308175223 1175.9186944754465 221.81287308175223Q1174.6199572056362 221.81287308175223 1173.957003452846 220.74779983956472Q1173.294049700056 219.68272659737724 1173.294049700056 217.60692058454242Q1173.294049700056 215.5256805245536 1173.957003452846 214.46060728236608Q1174.6199572056362 213.39553404017857 1175.9186944754465 213.39553404017857Z" fill="#ffffff"/>
<path d="M1120.1959662039621 230.67260749162946Q1120.1959662039621 230.3737348981585 1120.4051770193919 230.15637301199777Q1120.6143878348216 229.93901112583706 1120.9078263811384 229.93901112583706Q1121.2121330217635 229.93901112583706 1121.4294949079242 230.15637301199777Q1121.646856794085 230.3737348981585 1121.646856794085 230.67260749162946Q1121.646856794085 230.97691413225445 1121.4322119315011 231.18884197126116Q1121.2175670689176 231.40076981026786 1120.9078263811384 231.40076981026786Q1120.6035197405135 231.40076981026786 1120.3997429722378 231.19427601841517Q1120.1959662039621 230.9877822265625 1120.1959662039621 230.67260749162946ZM1120.9186944754465 227.35783872767857Q1120.15249382673 227.35783872767857 1119.7748275495258 228.1838138950893Q1119.3971612723215 229.0097890625 1119.3971612723215 230.69977772739955Q1119.3971612723215 232.38433234514508 1119.7748275495258 233.2103075125558Q1120.15249382673 234.03628267996652 1120.9186944754465 234.03628267996652Q1121.690329171317 234.03628267996652 1122.0679954485213 233.2103075125558Q1122.4456617257256 232.38433234514508 1122.4456617257256 230.69977772739955Q1122.4456617257256 229.0097890625 1122.0679954485213 228.1838138950893Q1121.690329171317 227.35783872767857 1120.9186944754465 227.35783872767857ZM1120.9186944754465 226.4883911830357Q1122.2174317452568 226.4883911830357 1122.883102521624 227.5534644252232Q1123.5487732979911 228.61853766741072 1123.5487732979911 230.69977772739955Q1123.5487732979911 232.77558374023437 1122.883102521624 233.84065698242188Q1122.2174317452568 234.90573022460936 1120.9186944754465 234.90573022460936Q1119.6199572056362 234.90573022460936 1118.957003452846 233.84065698242188Q1118.294049700056 232.77558374023437 1118.294049700056 230.69977772739955Q1118.294049700056 228.61853766741072 1118.957003452846 227.5534644252232Q1119.6199572056362 226.4883911830357 1120.9186944754465 226.4883911830357Z" fill="#0f766e"/>
<path d="M1131.1959662039621 230.67260749162946Q1131.1959662039621 230.3737348981585 1131.4051770193919 230.15637301199777Q1131.6143878348216 229.93901112583706 1131.9078263811384 229.93901112583706Q1132.2121330217635 229.93901112583706 1132.4294949079242 230.15637301199777Q1132.646856794085 230.3737348981585 1132.646856794085 230.67260749162946Q1132.646856794085 230.97691413225445 1132.4322119315011 231.18884197126116Q1132.2175670689176 231.40076981026786 1131.9078263811384 231.40076981026786Q1131.6035197405135 231.40076981026786 1131.3997429722378 231.19427601841517Q1131.1959662039621 230.9877822265625 1131.1959662039621 230.67260749162946ZM1131.9186944754465 227.35783872767857Q1131.15249382673 227.35783872767857 1130.7748275495258 228.1838138950893Q1130.3971612723215 229.0097890625 1130.3971612723215 230.69977772739955Q1130.3971612723215 232.38433234514508 1130.7748275495258 233.2103075125558Q1131.15249382673 234.03628267996652 1131.9186944754465 234.03628267996652Q1132.690329171317 234.03628267996652 1133.0679954485213 233.2103075125558Q1133.4456617257256 232.38433234514508 1133.4456617257256 230.69977772739955Q1133.4456617257256 229.0097890625 1133.0679954485213 228.1838138950893Q1132.690329171317 227.35783872767857 1131.9186944754465 227.35783872767857ZM1131.9186944754465 226.4883911830357Q1133.2174317452568 226.4883911830357 1133.883102521624 227.5534644252232Q1134.5487732979911 228.61853766741072 1134.5487732979911 230.69977772739955Q1134.5487732979911 232.77558374023437 1133.883102521624 233.84065698242188Q1133.2174317452568 234.90573022460936 1131.9186944754465 234.90573022460936Q1130.6199572056362 234.90573022460936 1129.957003452846 233.84065698242188Q1129.294049700056 232.77558374023437 1129.294049700056 230.69977772739955Q1129.294049700056 228.61853766741072 1129.957003452846 227.5534644252232Q1130.6199572056362 226.4883911830357 1131.9186944754465 226.4883911830357Z" fill="#3f918b"/>
<path d="M1142.1959662039621 230.67260749162946Q1142.1959662039621 230.3737348981585 1142.4051770193919 230.15637301199777Q1142.6143878348216 229.93901112583706 1142.9078263811384 229.93901112583706Q1143.2121330217635 229.93901112583706 1143.4294949079242 230.15637301199777Q1143.646856794085 230.3737348981585 1143.646856794085 230.67260749162946Q1143.646856794085 230.97691413225445 1143.4322119315011 231.18884197126116Q1143.2175670689176 231.40076981026786 1142.9078263811384 231.40076981026786Q1142.6035197405135 231.40076981026786 1142.3997429722378 231.19427601841517Q1142.1959662039621 230.9877822265625 1142.1959662039621 230.67260749162946ZM1142.9186944754465 227.35783872767857Q1142.15249382673 227.35783872767857 1141.7748275495258 228.1838138950893Q1141.3971612723215 229.0097890625 1141.3971612723215 230.69977772739955Q1141.3971612723215 232.38433234514508 1141.7748275495258 233.2103075125558Q1142.15249382673 234.03628267996652 1142.9186944754465 234.03628267996652Q1143.690329171317 234.03628267996652 1144.0679954485213 233.2103075125558Q1144.4456617257256 232.38433234514508 1144.4456617257256 230.69977772739955Q1144.4456617257256 229.0097890625 1144.0679954485213 228.1838138950893Q1143.690329171317 227.35783872767857 1142.9186944754465 227.35783872767857ZM1142.9186944754465 226.4883911830357Q1144.2174317452568 226.4883911830357 1144.883102521624 227.5534644252232Q1145.5487732979911 228.61853766741072 1145.5487732979911 230.69977772739955Q1145.5487732979911 232.77558374023437 1144.883102521624 233.84065698242188Q1144.2174317452568 234.90573022460936 1142.9186944754465 234.90573022460936Q1141.6199572056362 234.90573022460936 1140.957003452846 233.84065698242188Q1140.294049700056 232.77558374023437 1140.294049700056 230.69977772739955Q1140.294049700056 228.61853766741072 1140.957003452846 227.5534644252232Q1141.6199572056362 226.4883911830357 1142.9186944754465 226.4883911830357Z" fill="#6faca8"/>
<path d="M1153.1959662039621 230.67260749162946Q1153.1959662039621 230.3737348981585 1153.4051770193919 230.15637301199777Q1153.6143878348216 229.93901112583706 1153.9078263811384 229.93901112583706Q1154.2121330217635 229.93901112583706 1154.4294949079242 230.15637301199777Q1154.646856794085 230.3737348981585 1154.646856794085 230.67260749162946Q1154.646856794085 230.97691413225445 1154.4322119315011 231.18884197126116Q1154.2175670689176 231.40076981026786 1153.9078263811384 231.40076981026786Q1153.6035197405135 231.40076981026786 1153.3997429722378 231.19427601841517Q1153.1959662039621 230.9877822265625 1153.1959662039621 230.67260749162946ZM1153.9186944754465 227.35783872767857Q1153.15249382673 227.35783872767857 1152.7748275495258 228.1838138950893Q1152.3971612723215 229.0097890625 1152.3971612723215 230.69977772739955Q1152.3971612723215 232.38433234514508 1152.7748275495258 233.2103075125558Q1153.15249382673 234.03628267996652 1153.9186944754465 234.03628267996652Q1154.690329171317 234.03628267996652 1155.0679954485213 233.2103075125558Q1155.4456617257256 232.38433234514508 1155.4456617257256 230.69977772739955Q1155.4456617257256 229.0097890625 1155.0679954485213 228.1838138950893Q1154.690329171317 227.35783872767857 1153.9186944754465 227.35783872767857ZM1153.9186944754465 226.4883911830357Q1155.2174317452568 226.4883911830357 1155.883102521624 227.5534644252232Q1156.5487732979911 228.61853766741072 1156.5487732979911 230.69977772739955Q1156.5487732979911 232.77558374023437 1155.883102521624 233.84065698242188Q1155.2174317452568 234.90573022460936 1153.9186944754465 234.90573022460936Q1152.6199572056362 234.90573022460936 1151.957003452846 233.84065698242188Q1151.294049700056 232.77558374023437 1151.294049700056 230.69977772739955Q1151.294049700056 228.61853766741072 1151.957003452846 227.5534644252232Q1152.6199572056362 226.4883911830357 1153.9186944754465 226.4883911830357Z" fill="#9fc8c5"/>
<path d="M1163.0385141601564 233.8243548409598H1164.744804966518V227.62410703822545L1162.90809702846 228.0370946219308V227.03722994559152L1164.7339368722098 226.63511045619418H1165.8316143973216V233.8243548409598H1167.5161690150671V234.74814285714285H1163.0385141601564Z" fill="#cfe3e2"/>
<path d="M1175.1959662039621 230.67260749162946Q1175.1959662039621 230.3737348981585 1175.4051770193919 230.15637301199777Q1175.6143878348216 229.93901112583706 1175.9078263811384 229.93901112583706Q1176.2121330217635 229.93901112583706 1176.4294949079242 230.15637301199777Q1176.646856794085 230.3737348981585 1176.646856794085 230.67260749162946Q1176.646856794085 230.97691413225445 1176.4322119315011 231.18884197126116Q1176.2175670689176 231.40076981026786 1175.9078263811384 231.40076981026786Q1175.6035197405135 231.40076981026786 1175.3997429722378 231.19427601841517Q1175.1959662039621 230.9877822265625 1175.1959662039621 230.67260749162946ZM1175.9186944754465 227.35783872767857Q1175.15249382673 227.35783872767857 1174.7748275495258 228.1838138950893Q1174.3971612723215 229.0097890625 1174.3971612723215 230.69977772739955Q1174.3971612723215 232.38433234514508 1174.7748275495258 233.2103075125558Q1175.15249382673 234.03628267996652 1175.9186944754465 234.03628267996652Q1176.690329171317 234.03628267996652 1177.0679954485213 233.2103075125558Q1177.4456617257256 232.38433234514508 1177.4456617257256 230.69977772739955Q1177.4456617257256 229.0097890625 1177.0679954485213 228.1838138950893Q1176.690329171317 227.35783872767857 1175.9186944754465 227.35783872767857ZM1175.9186944754465 226.4883911830357Q1177.2174317452568 226.4883911830357 1177.883102521624 227.5534644252232Q1178.5487732979911 228.61853766741072 1178.5487732979911 230.69977772739955Q1178.5487732979911 232.77558374023437 1177.883102521624 233.84065698242188Q1177.2174317452568 234.90573022460936 1175.9186944754465 234.90573022460936Q1174.6199572056362 234.90573022460936 1173.957003452846 233.84065698242188Q1173.294049700056 232.77558374023437 1173.294049700056 230.69977772739955Q1173.294049700056 228.61853766741072 1173.957003452846 227.5534644252232Q1174.6199572056362 226.4883911830357 1175.9186944754465 226.4883911830357Z" fill="#ffffff"/>
<path d="M1119.0385141601564 246.91721198381697H1120.744804966518V240.7169641810826L1118.90809702846 241.12995176478796V240.13008708844868L1120.7339368722098 239.72796759905134H1121.8316143973216V246.91721198381697H1123.5161690150671V247.841H1119.0385141601564Z" fill="#0f766e"/>
<path d="M1130.0385141601564 246.91721198381697H1131.744804966518V240.7169641810826L1129.90809702846 241.12995176478796V240.13008708844868L1131.7339368722098 239.72796759905134H1132.8316143973216V246.91721198381697H1134.5161690150671V247.841H1130.0385141601564Z" fill="#3f918b"/>
<path d="M1142.1959662039621 243.76546463448662Q1142.1959662039621 243.46659204101564 1142.4051770193919 243.24923015485493Q1142.6143878348216 243.0318682686942 1142.9078263811384 243.0318682686942Q1143.2121330217635 243.0318682686942 1143.4294949079242 243.24923015485493Q1143.646856794085 243.46659204101564 1143.646856794085 243.76546463448662Q1143.646856794085 244.0697712751116 1143.4322119315011 244.2816991141183Q1143.2175670689176 244.49362695312502 1142.9078263811384 244.49362695312502Q1142.6035197405135 244.49362695312502 1142.3997429722378 244.28713316127232Q1142.1959662039621 244.08063936941966 1142.1959662039621 243.76546463448662ZM1142.9186944754465 240.45069587053572Q1142.15249382673 240.45069587053572 1141.7748275495258 241.27667103794644Q1141.3971612723215 242.10264620535716 1141.3971612723215 243.7926348702567Q1141.3971612723215 245.47718948800224 1141.7748275495258 246.30316465541296Q1142.15249382673 247.12913982282367 1142.9186944754465 247.12913982282367Q1143.690329171317 247.12913982282367 1144.0679954485213 246.30316465541296Q1144.4456617257256 245.47718948800224 1144.4456617257256 243.7926348702567Q1144.4456617257256 242.10264620535716 1144.0679954485213 241.27667103794644Q1143.690329171317 240.45069587053572 1142.9186944754465 240.45069587053572ZM1142.9186944754465 239.58124832589286Q1144.2174317452568 239.58124832589286 1144.883102521624 240.64632156808037Q1145.5487732979911 241.71139481026788 1145.5487732979911 243.7926348702567Q1145.5487732979911 245.86844088309152 1144.883102521624 246.93351412527903Q1144.2174317452568 247.9985873674665 1142.9186944754465 247.9985873674665Q1141.6199572056362 247.9985873674665 1140.957003452846 246.93351412527903Q1140.294049700056 245.86844088309152 1140.294049700056 243.7926348702567Q1140.294049700056 241.71139481026788 1140.957003452846 240.64632156808037Q1141.6199572056362 239.58124832589286 1142.9186944754465 239.58124832589286Z" fill="#6faca8"/>
<path d="M1153.1959662039621 243.76546463448662Q1153.1959662039621 243.46659204101564 1153.4051770193919 243.24923015485493Q1153.6143878348216 243.0318682686942 1153.9078263811384 243.0318682686942Q1154.2121330217635 243.0318682686942 1154.4294949079242 243.24923015485493Q1154.646856794085 243.46659204101564 1154.646856794085 243.76546463448662Q1154.646856794085 244.0697712751116 1154.4322119315011 244.2816991141183Q1154.2175670689176 244.49362695312502 1153.9078263811384 244.49362695312502Q1153.6035197405135 244.49362695312502 1153.3997429722378 244.28713316127232Q1153.1959662039621 244.08063936941966 1153.1959662039621 243.76546463448662ZM1153.9186944754465 240.45069587053572Q1153.15249382673 240.45069587053572 1152.7748275495258 241.27667103794644Q1152.3971612723215 242.10264620535716 1152.3971612723215 243.7926348702567Q1152.3971612723215 245.47718948800224 1152.7748275495258 246.30316465541296Q1153.15249382673 247.12913982282367 1153.9186944754465 247.12913982282367Q1154.690329171317 247.12913982282367 1155.0679954485213 246.30316465541296Q1155.4456617257256 245.47718948800224 1155.4456617257256 243.7926348702567Q1155.4456617257256 242.10264620535716 1155.0679954485213 241.27667103794644Q1154.690329171317 240.45069587053572 1153.9186944754465 240.45069587053572ZM1153.9186944754465 239.58124832589286Q1155.2174317452568 239.58124832589286 1155.883102521624 240.64632156808037Q1156.5487732979911 241.71139481026788 1156.5487732979911 243.7926348702567Q1156.5487732979911 245.86844088309152 1155.883102521624 246.93351412527903Q1155.2174317452568 247.9985873674665 1153.9186944754465 247.9985873674665Q1152.6199572056362 247.9985873674665 1151.957003452846 246.93351412527903Q1151.294049700056 245.86844088309152 1151.294049700056 243.7926348702567Q1151.294049700056 241.71139481026788 1151.957003452846 240.64632156808037Q1152.6199572056362 239.58124832589286 1153.9186944754465 239.58124832589286Z" fill="#9fc8c5"/>
<path d="M1163.0385141601564 246.91721198381697H1164.744804966518V240.7169641810826L1162.90809702846 241.12995176478796V240.13008708844868L1164.7339368722098 239.72796759905134H1165.8316143973216V246.91721198381697H1167.5161690150671V247.841H1163.0385141601564Z" fill="#cfe3e2"/>
<path d="M1174.0385141601564 246.91721198381697H1175.744804966518V240.7169641810826L1173.90809702846 241.12995176478796V240.13008708844868L1175.7339368722098 239.72796759905134H1176.8316143973216V246.91721198381697H1178.5161690150671V247.841H1174.0385141601564Z" fill="#ffffff"/>
<path d="M1119.0385141601564 260.01006912667407H1120.744804966518V253.8098213239397L1118.90809702846 254.22280890764506V253.22294423130577L1120.7339368722098 252.82082474190844H1121.8316143973216V260.01006912667407H1123.5161690150671V260.9338571428571H1119.0385141601564Z" fill="#0f766e"/>
<path d="M1131.1959662039621 256.8583217773437Q1131.1959662039621 256.55944918387274 1131.4051770193919 256.34208729771206Q1131.6143878348216 256.1247254115513 1131.9078263811384 256.1247254115513Q1132.2121330217635 256.1247254115513 1132.4294949079242 256.34208729771206Q1132.646856794085 256.55944918387274 1132.646856794085 256.8583217773437Q1132.646856794085 257.16262841796873 1132.4322119315011 257.37455625697544Q1132.2175670689176 257.5864840959821 1131.9078263811384 257.5864840959821Q1131.6035197405135 257.5864840959821 1131.3997429722378 257.3799903041294Q1131.1959662039621 257.17349651227676 1131.1959662039621 256.8583217773437ZM1131.9186944754465 253.54355301339282Q1131.15249382673 253.54355301339282 1130.7748275495258 254.36952818080354Q1130.3971612723215 255.19550334821426 1130.3971612723215 256.8854920131138Q1130.3971612723215 258.57004663085934 1130.7748275495258 259.39602179827006Q1131.15249382673 260.2219969656808 1131.9186944754465 260.2219969656808Q1132.690329171317 260.2219969656808 1133.0679954485213 259.39602179827006Q1133.4456617257256 258.57004663085934 1133.4456617257256 256.8854920131138Q1133.4456617257256 255.19550334821426 1133.0679954485213 254.36952818080354Q1132.690329171317 253.54355301339282 1131.9186944754465 253.54355301339282ZM1131.9186944754465 252.67410546874996Q1133.2174317452568 252.67410546874996 1133.883102521624 253.73917871093747Q1134.5487732979911 254.80425195312498 1134.5487732979911 256.8854920131138Q1134.5487732979911 258.9612980259486 1133.883102521624 260.02637126813613Q1133.2174317452568 261.09144451032364 1131.9186944754465 261.09144451032364Q1130.6199572056362 261.09144451032364 1129.957003452846 260.02637126813613Q1129.294049700056 258.9612980259486 1129.294049700056 256.8854920131138Q1129.294049700056 254.80425195312498 1129.957003452846 253.73917871093747Q1130.6199572056362 252.67410546874996 1131.9186944754465 252.67410546874996Z" fill="#3f918b"/>
<path d="M1142.1959662039621 256.8583217773437Q1142.1959662039621 256.55944918387274 1142.4051770193919 256.34208729771206Q1142.6143878348216 256.1247254115513 1142.9078263811384 256.1247254115513Q1143.2121330217635 256.1247254115513 1143.4294949079242 256.34208729771206Q1143.646856794085 256.55944918387274 1143.646856794085 256.8583217773437Q1143.646856794085 257.16262841796873 1143.4322119315011 257.37455625697544Q1143.2175670689176 257.5864840959821 1142.9078263811384 257.5864840959821Q1142.6035197405135 257.5864840959821 1142.3997429722378 257.3799903041294Q1142.1959662039621 257.17349651227676 1142.1959662039621 256.8583217773437ZM1142.9186944754465 253.54355301339282Q1142.15249382673 253.54355301339282 1141.7748275495258 254.36952818080354Q1141.3971612723215 255.19550334821426 1141.3971612723215 256.8854920131138Q1141.3971612723215 258.57004663085934 1141.7748275495258 259.39602179827006Q1142.15249382673 260.2219969656808 1142.9186944754465 260.2219969656808Q1143.690329171317 260.2219969656808 1144.0679954485213 259.39602179827006Q1144.4456617257256 258.57004663085934 1144.4456617257256 256.8854920131138Q1144.4456617257256 255.19550334821426 1144.0679954485213 254.36952818080354Q1143.690329171317 253.54355301339282 1142.9186944754465 253.54355301339282ZM1142.9186944754465 252.67410546874996Q1144.2174317452568 252.67410546874996 1144.883102521624 253.73917871093747Q1145.5487732979911 254.80425195312498 1145.5487732979911 256.8854920131138Q1145.5487732979911 258.9612980259486 1144.883102521624 260.02637126813613Q1144.2174317452568 261.09144451032364 1142.9186944754465 261.09144451032364Q1141.6199572056362 261.09144451032364 1140.957003452846 260.02637126813613Q1140.294049700056 258.9612980259486 1140.294049700056 256.8854920131138Q1140.294049700056 254.80425195312498 1140.957003452846 253.73917871093747Q1141.6199572056362 252.67410546874996 1142.9186944754465 252.67410546874996Z" fill="#6faca8"/>
<path d="M1152.0385141601564 260.01006912667407H1153.744804966518V253.8098213239397L1151.90809702846 254.22280890764506V253.22294423130577L1153.7339368722098 252.82082474190844H1154.8316143973216V260.01006912667407H1156.5161690150671V260.9338571428571H1152.0385141601564Z" fill="#9fc8c5"/>
<path d="M1164.1959662039621 256.8583217773437Q1164.1959662039621 256.55944918387274 1164.4051770193919 256.34208729771206Q1164.6143878348216 256.1247254115513 1164.9078263811384 256.1247254115513Q1165.2121330217635 256.1247254115513 1165.4294949079242 256.34208729771206Q1165.646856794085 256.55944918387274 1165.646856794085 256.8583217773437Q1165.646856794085 257.16262841796873 1165.4322119315011 257.37455625697544Q1165.2175670689176 257.5864840959821 1164.9078263811384 257.5864840959821Q1164.6035197405135 257.5864840959821 1164.3997429722378 257.3799903041294Q1164.1959662039621 257.17349651227676 1164.1959662039621 256.8583217773437ZM1164.9186944754465 253.54355301339282Q1164.15249382673 253.54355301339282 1163.7748275495258 254.36952818080354Q1163.3971612723215 255.19550334821426 1163.3971612723215 256.8854920131138Q1163.3971612723215 258.57004663085934 1163.7748275495258 259.39602179827006Q1164.15249382673 260.2219969656808 1164.9186944754465 260.2219969656808Q1165.690329171317 260.2219969656808 1166.0679954485213 259.39602179827006Q1166.4456617257256 258.57004663085934 1166.4456617257256 256.8854920131138Q1166.4456617257256 255.19550334821426 1166.0679954485213 254.36952818080354Q1165.690329171317 253.54355301339282 1164.9186944754465 253.54355301339282ZM1164.9186944754465 252.67410546874996Q1166.2174317452568 252.67410546874996 1166.883102521624 253.73917871093747Q1167.5487732979911 254.80425195312498 1167.5487732979911 256.8854920131138Q1167.5487732979911 258.9612980259486 1166.883102521624 260.02637126813613Q1166.2174317452568 261.09144451032364 1164.9186944754465 261.09144451032364Q1163.6199572056362 261.09144451032364 1162.957003452846 260.02637126813613Q1162.294049700056 258.9612980259486 1162.294049700056 256.8854920131138Q1162.294049700056 254.80425195312498 1162.957003452846 253.73917871093747Q1163.6199572056362 252.67410546874996 1164.9186944754465 252.67410546874996Z" fill="#cfe3e2"/>
<path d="M1175.1959662039621 256.8583217773437Q1175.1959662039621 256.55944918387274 1175.4051770193919 256.34208729771206Q1175.6143878348216 256.1247254115513 1175.9078263811384 256.1247254115513Q1176.2121330217635 256.1247254115513 1176.4294949079242 256.34208729771206Q1176.646856794085 256.55944918387274 1176.646856794085 256.8583217773437Q1176.646856794085 257.16262841796873 1176.4322119315011 257.37455625697544Q1176.2175670689176 257.5864840959821 1175.9078263811384 257.5864840959821Q1175.6035197405135 257.5864840959821 1175.3997429722378 257.3799903041294Q1175.1959662039621 257.17349651227676 1175.1959662039621 256.8583217773437ZM1175.9186944754465 253.54355301339282Q1175.15249382673 253.54355301339282 1174.7748275495258 254.36952818080354Q1174.3971612723215 255.19550334821426 1174.3971612723215 256.8854920131138Q1174.3971612723215 258.57004663085934 1174.7748275495258 259.39602179827006Q1175.15249382673 260.2219969656808 1175.9186944754465 260.2219969656808Q1176.690329171317 260.2219969656808 1177.0679954485213 259.39602179827006Q1177.4456617257256 258.57004663085934 1177.4456617257256 256.8854920131138Q1177.4456617257256 255.19550334821426 1177.0679954485213 254.36952818080354Q1176.690329171317 253.54355301339282 1175.9186944754465 253.54355301339282ZM1175.9186944754465 252.67410546874996Q1177.2174317452568 252.67410546874996 1177.883102521624 253.73917871093747Q1178.5487732979911 254.80425195312498 1178.5487732979911 256.8854920131138Q1178.5487732979911 258.9612980259486 1177.883102521624 260.02637126813613Q1177.2174317452568 261.09144451032364 1175.9186944754465 261.09144451032364Q1174.6199572056362 261.09144451032364 1173.957003452846 260.02637126813613Q1173.294049700056 258.9612980259486 1173.294049700056 256.8854920131138Q1173.294049700056 254.80425195312498 1173.957003452846 253.73917871093747Q1174.6199572056362 252.67410546874996 1175.9186944754465 252.67410546874996Z" fill="#ffffff"/>
<path d="M1119.0385141601564 273.1029262695312H1120.744804966518V266.90267846679683L1118.90809702846 267.3156660505022V266.3158013741629L1120.7339368722098 265.9136818847656H1121.8316143973216V273.1029262695312H1123.5161690150671V274.02671428571426H1119.0385141601564Z" fill="#0f766e"/>
<path d="M1131.1959662039621 269.95117892020085Q1131.1959662039621 269.6523063267299 1131.4051770193919 269.4349444405692Q1131.6143878348216 269.21758255440847 1131.9078263811384 269.21758255440847Q1132.2121330217635 269.21758255440847 1132.4294949079242 269.4349444405692Q1132.646856794085 269.6523063267299 1132.646856794085 269.95117892020085Q1132.646856794085 270.2554855608259 1132.4322119315011 270.4674133998326Q1132.2175670689176 270.67934123883924 1131.9078263811384 270.67934123883924Q1131.6035197405135 270.67934123883924 1131.3997429722378 270.4728474469866Q1131.1959662039621 270.2663536551339 1131.1959662039621 269.95117892020085ZM1131.9186944754465 266.63641015624995Q1131.15249382673 266.63641015624995 1130.7748275495258 267.46238532366067Q1130.3971612723215 268.2883604910714 1130.3971612723215 269.97834915597093Q1130.3971612723215 271.6629037737165 1130.7748275495258 272.4888789411272Q1131.15249382673 273.31485410853793 1131.9186944754465 273.31485410853793Q1132.690329171317 273.31485410853793 1133.0679954485213 272.4888789411272Q1133.4456617257256 271.6629037737165 1133.4456617257256 269.97834915597093Q1133.4456617257256 268.2883604910714 1133.0679954485213 267.46238532366067Q1132.690329171317 266.63641015624995 1131.9186944754465 266.63641015624995ZM1131.9186944754465 265.76696261160714Q1133.2174317452568 265.76696261160714 1133.883102521624 266.83203585379465Q1134.5487732979911 267.8971090959821 1134.5487732979911 269.97834915597093Q1134.5487732979911 272.0541551688058 1133.883102521624 273.1192284109933Q1133.2174317452568 274.1843016531808 1131.9186944754465 274.1843016531808Q1130.6199572056362 274.1843016531808 1129.957003452846 273.1192284109933Q1129.294049700056 272.0541551688058 1129.294049700056 269.97834915597093Q1129.294049700056 267.8971090959821 1129.957003452846 266.83203585379465Q1130.6199572056362 265.76696261160714 1131.9186944754465 265.76696261160714Z" fill="#3f918b"/>
<path d="M1141.0385141601564 273.1029262695312H1142.744804966518V266.90267846679683L1140.90809702846 267.3156660505022V266.3158013741629L1142.7339368722098 265.9136818847656H1143.8316143973216V273.1029262695312H1145.5161690150671V274.02671428571426H1141.0385141601564Z" fill="#6faca8"/>
<path d="M1152.0385141601564 273.1029262695312H1153.744804966518V266.90267846679683L1151.90809702846 267.3156660505022V266.3158013741629L1153.7339368722098 265.9136818847656H1154.8316143973216V273.1029262695312H1156.5161690150671V274.02671428571426H1152.0385141601564Z" fill="#9fc8c5"/>
<path d="M1163.0385141601564 273.1029262695312H1164.744804966518V266.90267846679683L1162.90809702846 267.3156660505022V266.3158013741629L1164.7339368722098 265.9136818847656H1165.8316143973216V273.1029262695312H1167.5161690150671V274.02671428571426H1163.0385141601564Z" fill="#cfe3e2"/>
<path d="M1175.1959662039621 269.95117892020085Q1175.1959662039621 269.6523063267299 1175.4051770193919 269.4349444405692Q1175.6143878348216 269.21758255440847 1175.9078263811384 269.21758255440847Q1176.2121330217635 269.21758255440847 1176.4294949079242 269.4349444405692Q1176.646856794085 269.6523063267299 1176.646856794085 269.95117892020085Q1176.646856794085 270.2554855608259 1176.4322119315011 270.4674133998326Q1176.2175670689176 270.67934123883924 1175.9078263811384 270.67934123883924Q1175.6035197405135 270.67934123883924 1175.3997429722378 270.4728474469866Q1175.1959662039621 270.2663536551339 1175.1959662039621 269.95117892020085ZM1175.9186944754465 266.63641015624995Q1175.15249382673 266.63641015624995 1174.7748275495258 267.46238532366067Q1174.3971612723215 268.2883604910714 1174.3971612723215 269.97834915597093Q1174.3971612723215 271.6629037737165 1174.7748275495258 272.4888789411272Q1175.15249382673 273.31485410853793 1175.9186944754465 273.31485410853793Q1176.690329171317 273.31485410853793 1177.0679954485213 272.4888789411272Q1177.4456617257256 271.6629037737165 1177.4456617257256 269.97834915597093Q1177.4456617257256 268.2883604910714 1177.0679954485213 267.46238532366067Q1176.690329171317 266.63641015624995 1175.9186944754465 266.63641015624995ZM1175.9186944754465 265.76696261160714Q1177.2174317452568 265.76696261160714 1177.883102521624 266.83203585379465Q1178.5487732979911 267.8971090959821 1178.5487732979911 269.97834915597093Q1178.5487732979911 272.0541551688058 1177.883102521624 273.1192284109933Q1177.2174317452568 274.1843016531808 1175.9186944754465 274.1843016531808Q1174.6199572056362 274.1843016531808 1173.957003452846 273.1192284109933Q1173.294049700056 272.0541551688058 1173.294049700056 269.97834915597093Q1173.294049700056 267.8971090959821 1173.957003452846 266.83203585379465Q1174.6199572056362 265.76696261160714 1175.9186944754465 265.76696261160714Z" fill="#ffffff"/>
<path d="M1119.0385141601564 286.1957834123884H1120.744804966518V279.995535609654L1118.90809702846 280.4085231933594V279.40865851702006L1120.7339368722098 279.00653902762275H1121.8316143973216V286.1957834123884H1123.5161690150671V287.1195714285714H1119.0385141601564Z" fill="#0f766e"/>
<path d="M1131.1959662039621 283.044036063058Q1131.1959662039621 282.74516346958706 1131.4051770193919 282.52780158342637Q1131.6143878348216 282.3104396972656 1131.9078263811384 282.3104396972656Q1132.2121330217635 282.3104396972656 1132.4294949079242 282.52780158342637Q1132.646856794085 282.74516346958706 1132.646856794085 283.044036063058Q1132.646856794085 283.34834270368304 1132.4322119315011 283.56027054268975Q1132.2175670689176 283.7721983816964 1131.9078263811384 283.7721983816964Q1131.6035197405135 283.7721983816964 1131.3997429722378 283.56570458984373Q1131.1959662039621 283.35921079799107 1131.1959662039621 283.044036063058ZM1131.9186944754465 279.7292672991071Q1131.15249382673 279.7292672991071 1130.7748275495258 280.5552424665178Q1130.3971612723215 281.38121763392854 1130.3971612723215 283.0712062988281Q1130.3971612723215 284.75576091657365 1130.7748275495258 285.58173608398437Q1131.15249382673 286.4077112513951 1131.9186944754465 286.4077112513951Q1132.690329171317 286.4077112513951 1133.0679954485213 285.58173608398437Q1133.4456617257256 284.75576091657365 1133.4456617257256 283.0712062988281Q1133.4456617257256 281.38121763392854 1133.0679954485213 280.5552424665178Q1132.690329171317 279.7292672991071 1131.9186944754465 279.7292672991071ZM1131.9186944754465 278.8598197544643Q1133.2174317452568 278.8598197544643 1133.883102521624 279.9248929966518Q1134.5487732979911 280.98996623883926 1134.5487732979911 283.0712062988281Q1134.5487732979911 285.14701231166293 1133.883102521624 286.21208555385044Q1133.2174317452568 287.27715879603795 1131.9186944754465 287.27715879603795Q1130.6199572056362 287.27715879603795 1129.957003452846 286.21208555385044Q1129.294049700056 285.14701231166293 1129.294049700056 283.0712062988281Q1129.294049700056 280.98996623883926 1129.957003452846 279.9248929966518Q1130.6199572056362 278.8598197544643 1131.9186944754465 278.8598197544643Z" fill="#3f918b"/>
<path d="M1141.0385141601564 286.1957834123884H1142.744804966518V279.995535609654L1140.90809702846 280.4085231933594V279.40865851702006L1142.7339368722098 279.00653902762275H1143.8316143973216V286.1957834123884H1145.5161690150671V287.1195714285714H1141.0385141601564Z" fill="#6faca8"/>
<path d="M1153.1959662039621 283.044036063058Q1153.1959662039621 282.74516346958706 1153.4051770193919 282.52780158342637Q1153.6143878348216 282.3104396972656 1153.9078263811384 282.3104396972656Q1154.2121330217635 282.3104396972656 1154.4294949079242 282.52780158342637Q1154.646856794085 282.74516346958706 1154.646856794085 283.044036063058Q1154.646856794085 283.34834270368304 1154.4322119315011 283.56027054268975Q1154.2175670689176 283.7721983816964 1153.9078263811384 283.7721983816964Q1153.6035197405135 283.7721983816964 1153.3997429722378 283.56570458984373Q1153.1959662039621 283.35921079799107 1153.1959662039621 283.044036063058ZM1153.9186944754465 279.7292672991071Q1153.15249382673 279.7292672991071 1152.7748275495258 280.5552424665178Q1152.3971612723215 281.38121763392854 1152.3971612723215 283.0712062988281Q1152.3971612723215 284.75576091657365 1152.7748275495258 285.58173608398437Q1153.15249382673 286.4077112513951 1153.9186944754465 286.4077112513951Q1154.690329171317 286.4077112513951 1155.0679954485213 285.58173608398437Q1155.4456617257256 284.75576091657365 1155.4456617257256 283.0712062988281Q1155.4456617257256 281.38121763392854 1155.0679954485213 280.5552424665178Q1154.690329171317 279.7292672991071 1153.9186944754465 279.7292672991071ZM1153.9186944754465 278.8598197544643Q1155.2174317452568 278.8598197544643 1155.883102521624 279.9248929966518Q1156.5487732979911 280.98996623883926 1156.5487732979911 283.0712062988281Q1156.5487732979911 285.14701231166293 1155.883102521624 286.21208555385044Q1155.2174317452568 287.27715879603795 1153.9186944754465 287.27715879603795Q1152.6199572056362 287.27715879603795 1151.957003452846 286.21208555385044Q1151.294049700056 285.14701231166293 1151.294049700056 283.0712062988281Q1151.294049700056 280.98996623883926 1151.957003452846 279.9248929966518Q1152.6199572056362 278.8598197544643 1153.9186944754465 278.8598197544643Z" fill="#9fc8c5"/>
<path d="M1163.0385141601564 286.1957834123884H1164.744804966518V279.995535609654L1162.90809702846 280.4085231933594V279.40865851702006L1164.7339368722098 279.00653902762275H1165.8316143973216V286.1957834123884H1167.5161690150671V287.1195714285714H1163.0385141601564Z" fill="#cfe3e2"/>
<path d="M1174.0385141601564 286.1957834123884H1175.744804966518V279.995535609654L1173.90809702846 280.4085231933594V279.40865851702006L1175.7339368722098 279.00653902762275H1176.8316143973216V286.1957834123884H1178.5161690150671V287.1195714285714H1174.0385141601564Z" fill="#ffffff"/>
  
</svg>
